<?xml version="1.0" encoding="utf-8" ?>
<svg baseProfile="full" height="2068.0" version="1.1" width="8908.62408" xmlns="http://www.w3.org/2000/svg" xmlns:ev="http://www.w3.org/2001/xml-events" xmlns:xlink="http://www.w3.org/1999/xlink"><defs /><image height="2068.0" width="1287.2" x="0" xlink:href="rod.svg" y="0" /><image height="2068.0" width="1631.2" x="1287.2" xlink:href="front_cover.svg" y="0" /><image height="2068.0" preserveAspectRatio="none" width="2733.4240800000007" x="2918.4" xlink:href="barrel.svg" y="0" /><image height="2068.0" width="2070.4" x="5651.82408" xlink:href="back_cover.svg" y="0" /><image height="2068.0" width="1106.4" x="7802.22408" xlink:href="front_view.svg" y="0" /><text fill="black" font-family="GOST Type A" font-size="98.4" transform="skewX(-25)" x="4705.31204" y="1802.4">218</text><text fill="black" font-family="GOST Type A" font-size="98.4" transform="skewX(-25)" x="4249.5120400000005" y="1933.6000000000001">266</text><line stroke="grey" stroke-width="3.6799999999999997" x1="480.0" x2="684.0" y1="806.0" y2="806.0" /><line stroke="grey" stroke-width="3.6799999999999997" x1="715.2" x2="750.6782608695653" y1="806.0" y2="806.0" /><line stroke="grey" stroke-width="3.6799999999999997" x1="781.8782608695652" x2="985.8782608695652" y1="806.0" y2="806.0" /><line stroke="grey" stroke-width="3.6799999999999997" x1="1017.0782608695653" x2="1052.5565217391304" y1="806.0" y2="806.0" /><line stroke="grey" stroke-width="3.6799999999999997" x1="1083.7565217391304" x2="1287.7565217391304" y1="806.0" y2="806.0" /><line stroke="grey" stroke-width="3.6799999999999997" x1="1318.9565217391305" x2="1354.4347826086957" y1="806.0" y2="806.0" /><line stroke="grey" stroke-width="3.6799999999999997" x1="1385.6347826086958" x2="1589.6347826086958" y1="806.0" y2="806.0" /><line stroke="grey" stroke-width="3.6799999999999997" x1="1620.8347826086958" x2="1656.313043478261" y1="806.0" y2="806.0" /><line stroke="grey" stroke-width="3.6799999999999997" x1="1687.513043478261" x2="1891.513043478261" y1="806.0" y2="806.0" /><line stroke="grey" stroke-width="3.6799999999999997" x1="1922.713043478261" x2="1958.1913043478262" y1="806.0" y2="806.0" /><line stroke="grey" stroke-width="3.6799999999999997" x1="1989.391304347826" x2="2193.391304347826" y1="806.0" y2="806.0" /><line stroke="grey" stroke-width="3.6799999999999997" x1="2224.591304347826" x2="2260.069565217391" y1="806.0" y2="806.0" /><line stroke="grey" stroke-width="3.6799999999999997" x1="2291.269565217391" x2="2495.269565217391" y1="806.0" y2="806.0" /><line stroke="grey" stroke-width="3.6799999999999997" x1="2526.469565217391" x2="2561.947826086956" y1="806.0" y2="806.0" /><line stroke="grey" stroke-width="3.6799999999999997" x1="2593.1478260869562" x2="2797.1478260869562" y1="806.0" y2="806.0" /><line stroke="grey" stroke-width="3.6799999999999997" x1="2828.347826086956" x2="2863.826086956521" y1="806.0" y2="806.0" /><line stroke="grey" stroke-width="3.6799999999999997" x1="2895.0260869565213" x2="3099.0260869565213" y1="806.0" y2="806.0" /><line stroke="grey" stroke-width="3.6799999999999997" x1="3130.226086956521" x2="3165.704347826086" y1="806.0" y2="806.0" /><line stroke="grey" stroke-width="3.6799999999999997" x1="3196.9043478260865" x2="3400.9043478260865" y1="806.0" y2="806.0" /><line stroke="grey" stroke-width="3.6799999999999997" x1="3432.1043478260863" x2="3467.5826086956513" y1="806.0" y2="806.0" /><line stroke="grey" stroke-width="3.6799999999999997" x1="3498.7826086956516" x2="3702.7826086956516" y1="806.0" y2="806.0" /><line stroke="grey" stroke-width="3.6799999999999997" x1="3733.9826086956514" x2="3769.4608695652164" y1="806.0" y2="806.0" /><line stroke="grey" stroke-width="3.6799999999999997" x1="3800.6608695652167" x2="4004.6608695652167" y1="806.0" y2="806.0" /><line stroke="grey" stroke-width="3.6799999999999997" x1="4035.8608695652165" x2="4071.3391304347815" y1="806.0" y2="806.0" /><line stroke="grey" stroke-width="3.6799999999999997" x1="4102.539130434782" x2="4306.539130434782" y1="806.0" y2="806.0" /><line stroke="grey" stroke-width="3.6799999999999997" x1="4337.739130434782" x2="4373.217391304347" y1="806.0" y2="806.0" /><line stroke="grey" stroke-width="3.6799999999999997" x1="4404.417391304348" x2="4608.417391304348" y1="806.0" y2="806.0" /><line stroke="grey" stroke-width="3.6799999999999997" x1="4639.617391304348" x2="4675.095652173913" y1="806.0" y2="806.0" /><line stroke="grey" stroke-width="3.6799999999999997" x1="4706.295652173913" x2="4910.295652173913" y1="806.0" y2="806.0" /><line stroke="grey" stroke-width="3.6799999999999997" x1="4941.495652173913" x2="4976.973913043478" y1="806.0" y2="806.0" /><line stroke="grey" stroke-width="3.6799999999999997" x1="5008.173913043479" x2="5212.173913043479" y1="806.0" y2="806.0" /><line stroke="grey" stroke-width="3.6799999999999997" x1="5243.373913043479" x2="5278.852173913044" y1="806.0" y2="806.0" /><line stroke="grey" stroke-width="3.6799999999999997" x1="5310.0521739130445" x2="5514.0521739130445" y1="806.0" y2="806.0" /><line stroke="grey" stroke-width="3.6799999999999997" x1="5545.252173913044" x2="5580.730434782609" y1="806.0" y2="806.0" /><line stroke="grey" stroke-width="3.6799999999999997" x1="5611.93043478261" x2="5815.93043478261" y1="806.0" y2="806.0" /><line stroke="grey" stroke-width="3.6799999999999997" x1="5847.13043478261" x2="5882.608695652175" y1="806.0" y2="806.0" /><line stroke="grey" stroke-width="3.6799999999999997" x1="5913.808695652176" x2="6117.808695652176" y1="806.0" y2="806.0" /><line stroke="grey" stroke-width="3.6799999999999997" x1="6149.008695652175" x2="6184.4869565217405" y1="806.0" y2="806.0" /><line stroke="grey" stroke-width="3.6799999999999997" x1="6215.686956521741" x2="6419.686956521741" y1="806.0" y2="806.0" /></svg>